<svg width="1600" height="520" viewBox="0 0 1600 520" xmlns="http://www.w3.org/2000/svg" role="img" aria-label="CMIVET Centro Médico Intensivo Veterinário">
  <defs>
    <linearGradient id="gold" x1="0" x2="1" y1="0" y2="1">
      <stop offset="0" stop-color="#d8bd75"/>
      <stop offset="1" stop-color="#b99545"/>
    </linearGradient>
  </defs>
  <rect width="1600" height="520" fill="#ffffff"/>
  <path d="M122 115c-65 34-104 96-104 166 0 102 83 188 206 221 62 17 139 23 234 23h1025" fill="none" stroke="url(#gold)" stroke-width="22" stroke-linecap="round"/>
  <path d="M130 128c-64 36-103 92-103 153 0 68 47 127 124 163 82 38 197 47 333 47h1015" fill="none" stroke="#d8bd75" stroke-width="9" stroke-linecap="round"/>
  <path d="M129 126c56 10 107 45 147 101 39 55 64 128 73 211C292 348 230 291 164 267l38-48c-30-45-55-74-73-93Z" fill="#0f6258"/>
  <path d="M125 142c33 26 61 59 84 98l-82 88 26 47c37 9 69 7 97-5 33 42 66 70 100 85-47 14-104 10-170-12-67-22-113-72-122-129-10-65 17-122 67-172Z" fill="#ffffff"/>
  <circle cx="134" cy="257" r="9" fill="#c9ab5d"/>
  <path d="M464 94h78v78h-78z" fill="url(#gold)"/>
  <path d="M164 91h70c84 0 151 61 204 181L529 91h93v342h-78V213L430 433h-54C330 286 263 194 164 91Z" fill="#0f6258"/>
  <path d="M647 91h78v342h-78z" fill="#0f6258"/>
  <path d="M748 91h94l-145 342h-88L748 91Z" fill="#0f6258"/>
  <g fill="#0f6258" font-family="Montserrat, Arial, sans-serif">
    <text x="920" y="159" font-size="80" font-weight="300" letter-spacing="8">CENTRO</text>
    <text x="920" y="248" font-size="80" font-weight="300" letter-spacing="6">MÉDICO</text>
    <text x="920" y="340" font-size="82" font-weight="800">INTENSIVO</text>
    <text x="920" y="432" font-size="82" font-weight="800">VETERINÁRIO</text>
  </g>
  <path d="M1390 491h57c12 0 11-14 19-14 9 0 8 26 22 26 18 0 17-136 29-136 13 0 10 137 28 137 15 0 15-35 31-35 13 0 18 22 36 22h35" fill="none" stroke="url(#gold)" stroke-width="9" stroke-linecap="round" stroke-linejoin="round"/>
</svg>
